#!OML:ASF H:\LiuWeirdWalks\Patient Classification 1\Patient 1\Session 1\male.ASF
:FULLY-SPECIFIED
:DEGREES
1366
root 1.81013 18.1007 23.3168 5.14348 3.0277 -6.46518
lowerback 1.42464 3.16278 4.32725
upperback 0.612153 4.27872 2.24915
thorax -0.0245572 2.14408 -0.164373
lowerneck -24.7721 0.160607 4.65281
upperneck 23.636 -0.0453247 -5.23591
head 11.8545 -0.300292 -2.75237
rclavicle 4.56459e-014 1.27222e-014
rhumerus -30.7333 -9.46854 -80.1597
rradius 33.9136
rwrist -7.50213
rhand -17.07 -2.81343
rfingers 7.12502
rthumb 9.16781 -32.5942
lclavicle 4.56459e-014 1.27222e-014
lhumerus -37.1306 -6.89837 85.6947
lradius 40.0125
lwrist 15.8021
lhand -14.5683 -3.68407
lfingers 7.12502
lthumb 11.581 25.9759
rfemur 14.4522 -1.19604 26.6623
rtibia 15.0435
rfoot -1.45818 -8.81789
rtoes -21.0339
lfemur -23.7766 -2.22189 -15.758
ltibia 29.5325
lfoot -7.46852 8.9981
ltoes -6.82323
1367
root 1.83271 18.0996 23.3841 5.15564 2.91682 -6.45727
lowerback 1.15779 2.80062 3.78643
upperback 0.74091 3.77017 2.55762
thorax 0.183699 1.89292 0.471769
lowerneck -24.651 0.652427 5.09296
upperneck 23.4829 0.622204 -5.7292
head 11.8166 -0.0276746 -2.89519
rclavicle -4.46769e-014 -5.46658e-014
rhumerus -30.3034 -8.25145 -80.3972
rradius 33.887
rwrist -7.57868
rhand -17.0728 -2.81397
rfingers 7.12502
rthumb 9.16513 -32.5948
lclavicle -4.46769e-014 -5.46658e-014
lhumerus -37.1507 -5.55548 85.4993
lradius 39.8849
lwrist 15.6231
lhand -14.5298 -3.72788
lfingers 7.12502
lthumb 11.6183 25.93
rfemur 14.435 -1.24583 26.4944
rtibia 15.4034
rfoot -1.21814 -8.57685
rtoes -21.1964
lfemur -23.6077 -2.37219 -15.8608
ltibia 29.6998
lfoot -7.34127 9.24177
ltoes -5.83019
1368
root 1.85389 18.0989 23.451 5.17422 2.77663 -6.42733
lowerback 0.988008 2.70327 3.57569
upperback 0.83741 3.62521 2.67738
thorax 0.354084 1.82233 0.723619
lowerneck -24.6946 0.807525 5.17916
upperneck 23.4314 0.854962 -5.90553
head 11.8221 0.0597217 -2.93644
rclavicle -5.78712e-014 -2.82274e-014
rhumerus -30.0713 -7.86345 -80.4077
rradius 33.9395
rwrist -7.63579
rhand -17.0827 -2.78042
rfingers 7.12502
rthumb 9.15558 -32.5617
lclavicle -5.78712e-014 -2.82274e-014
lhumerus -37.0199 -5.07893 85.5057
lradius 39.7059
lwrist 15.5485
lhand -14.5111 -3.71556
lfingers 7.12502
lthumb 11.6363 25.9413
rfemur 14.3724 -1.25384 26.3147
rtibia 15.8287
rfoot -0.978377 -8.36421
rtoes -21.3266
lfemur -23.4322 -2.4937 -15.9755
ltibia 29.8507
lfoot -7.30135 9.48943
ltoes -5.07759
1369
root 1.87451 18.0981 23.5173 5.18345 2.63412 -6.38841
lowerback 0.971886 2.89134 3.80849
upperback 0.869381 3.87459 2.55555
thorax 0.423387 1.94913 0.4722
lowerneck -24.8945 0.588868 4.89919
upperneck 23.5165 0.58973 -5.70242
head 11.8734 -0.0592123 -2.86179
rclavicle -6.23687e-015 2.94201e-014
rhumerus -30.1165 -8.4208 -80.2159
rradius 34.0859
rwrist -7.64749
rhand -17.116 -2.72711
rfingers 7.12502
rthumb 9.12341 -32.5098
lclavicle -6.23687e-015 2.94201e-014
lhumerus -36.7763 -5.60479 85.6879
lradius 39.4769
lwrist 15.573
lhand -14.4938 -3.69079
lfingers 7.12502
lthumb 11.653 25.9652
rfemur 14.2779 -1.26889 26.1246
rtibia 16.3272
rfoot -0.75659 -8.15942
rtoes -21.4275
lfemur -23.2344 -2.58094 -16.096
ltibia 29.9785
lfoot -7.33408 9.71112
ltoes -4.54565
1370
root 1.89424 18.0978 23.5834 5.19561 2.48219 -6.31067
lowerback 0.979676 3.06919 3.99082
upperback 0.875338 4.11257 2.41821
thorax 0.452933 2.06951 0.23127
lowerneck -25.0477 0.384557 4.6562
upperneck 23.6079 0.335655 -5.50709
head 11.9205 -0.169907 -2.79429
rclavicle 6.54995e-014 9.34288e-015
rhumerus -30.2017 -8.95052 -80.0451
rradius 34.232
rwrist -7.67818
rhand -17.1383 -2.69735
rfingers 7.12502
rthumb 9.10187 -32.481
lclavicle 6.54995e-014 9.34288e-015
lhumerus -36.5853 -6.11834 85.8505
lradius 39.2552
lwrist 15.6133
lhand -14.5083 -3.69912
lfingers 7.12502
lthumb 11.6389 25.9576
rfemur 14.1386 -1.2907 25.8889
rtibia 16.9017
rfoot -0.558827 -7.95324
rtoes -21.5366
lfemur -23.0228 -2.60957 -16.2586
ltibia 30.0756
lfoot -7.41862 9.88872
ltoes -4.22432
1371
root 1.91379 18.0976 23.6488 5.21093 2.3361 -6.20043
lowerback 1.04046 3.17434 4.0767
upperback 0.812395 4.25935 2.28596
thorax 0.37437 2.14175 0.0429457
lowerneck -25.0535 0.257963 4.52541
upperneck 23.7068 0.167321 -5.35733
head 11.9491 -0.236283 -2.74679
rclavicle -2.39039e-014 -4.57205e-015
rhumerus -30.3837 -9.29275 -79.958
rradius 34.3853
rwrist -7.70688
rhand -17.1766 -2.65314
rfingers 7.12502
rthumb 9.06489 -32.4384
lclavicle -2.39039e-014 -4.57205e-015
lhumerus -36.5598 -6.46539 85.9296
lradius 39.0669
lwrist 15.6383
lhand -14.5144 -3.70529
lfingers 7.12502
lthumb 11.6331 25.9518
rfemur 13.9631 -1.35366 25.6032
rtibia 17.5332
rfoot -0.3746 -7.71872
rtoes -21.6403
lfemur -22.8017 -2.59223 -16.46
ltibia 30.1445
lfoot -7.53778 10.0222
ltoes -4.06148
1372
root 1.93262 18.0975 23.7133 5.22321 2.19951 -6.09189
lowerback 1.03841 3.06691 3.87087
upperback 0.759228 4.11704 2.29433
thorax 0.301486 2.06839 0.162961
lowerneck -24.88 0.407558 4.70642
upperneck 23.7 0.346124 -5.46422
head 11.9248 -0.152426 -2.78502
rclavicle -1.29955e-014 -2.34566e-014
rhumerus -30.4262 -8.98518 -80.0566
rradius 34.4634
rwrist -7.7558
rhand -17.2073 -2.62087
rfingers 7.12502
rthumb 9.03527 -32.4074
lclavicle -1.29955e-014 -2.34566e-014
lhumerus -36.6757 -6.13376 85.8444
lradius 38.9291
lwrist 15.5955
lhand -14.514 -3.71537
lfingers 7.12502
lthumb 11.6334 25.9417
rfemur 13.7587 -1.447 25.3132
rtibia 18.2159
rfoot -0.188372 -7.47131
rtoes -21.7155
lfemur -22.5705 -2.52761 -16.6601
ltibia 30.1855
lfoot -7.67484 10.1071
ltoes -4.01878
1373
root 1.95059 18.0972 23.778 5.223 2.05322 -5.98218
lowerback 1.00305 2.82514 3.46061
upperback 0.713169 3.79231 2.39924
thorax 0.231717 1.90346 0.497502
lowerneck -24.5894 0.736908 5.09327
upperneck 23.6242 0.754703 -5.74877
head 11.8685 0.0302628 -2.88346
rclavicle -6.58474e-015 2.78299e-015
rhumerus -30.4 -8.24727 -80.2696
rradius 34.5138
rwrist -7.80902
rhand -17.2285 -2.62043
rfingers 7.12502
rthumb 9.01489 -32.4078
lclavicle -6.58474e-015 2.78299e-015
lhumerus -36.8871 -5.36728 85.6565
lradius 38.8197
lwrist 15.4978
lhand -14.5137 -3.73839
lfingers 7.12502
lthumb 11.6337 25.9186
rfemur 13.5551 -1.55408 25.0136
rtibia 18.9187
rfoot 0.0249962 -7.2071
rtoes -21.7458
lfemur -22.3165 -2.41673 -16.8615
ltibia 30.212
lfoot -7.82967 10.1641
ltoes -4.05054
1374
root 1.96902 18.0973 23.8416 5.2295 1.91857 -5.87048
lowerback 0.955774 2.55756 3.03371
upperback 0.668039 3.43251 2.51202
thorax 0.173697 1.72149 0.851397
lowerneck -24.2693 1.09133 5.52695
upperneck 23.5264 1.19331 -6.06674
head 11.804 0.227183 -2.9972
rclavicle 4.06515e-014 2.127e-014
rhumerus -30.3512 -7.4573 -80.5043
rradius 34.5453
rwrist -7.85229
rhand -17.2266 -2.63781
rfingers 7.12502
rthumb 9.01669 -32.4251
lclavicle 4.06515e-014 2.127e-014
lhumerus -37.1066 -4.56284 85.4514
lradius 38.7233
lwrist 15.4167
lhand -14.4944 -3.73017
lfingers 7.12502
lthumb 11.6524 25.9258
rfemur 13.3293 -1.71254 24.6909
rtibia 19.6397
rfoot 0.283278 -6.90452
rtoes -21.6979
lfemur -22.0665 -2.28781 -17.0689
ltibia 30.2232
lfoot -7.98638 10.2018
ltoes -4.12853
1375
root 1.9872 18.0972 23.9049 5.21851 1.78508 -5.83284
lowerback 0.901682 2.24117 2.61312
upperback 0.636562 3.00708 2.68078
thorax 0.137732 1.50723 1.26146
lowerneck -23.8977 1.50523 6.04114
upperneck 23.3886 1.71105 -6.45974
head 11.7259 0.458353 -3.13893
rclavicle -2.13694e-015 -9.54166e-015
rhumerus -30.2577 -6.51323 -80.7774
rradius 34.5526
rwrist -7.8791
rhand -17.2092 -2.6838
rfingers 7.12502
rthumb 9.0335 -32.4704
lclavicle -2.13694e-015 -9.54166e-015
lhumerus -37.3419 -3.6081 85.209
lradius 38.6339
lwrist 15.2968
lhand -14.4641 -3.78172
lfingers 7.12502
lthumb 11.6816 25.8726
rfemur 13.1026 -1.89391 24.4379
rtibia 20.3783
rfoot 0.601714 -6.58343
rtoes -21.5502
lfemur -21.7941 -2.14206 -17.1937
ltibia 30.2182
lfoot -8.14569 10.2347
ltoes -4.21555
1376
root 2.0052 18.0977 23.9675 5.21614 1.63181 -5.7728
lowerback 0.95646 2.25212 2.63065
upperback 0.580261 3.0262 2.61836
thorax 0.0535505 1.51607 1.18371
lowerneck -23.8278 1.50532 6.08931
upperneck 23.4169 1.6932 -6.44273
head 11.7222 0.458141 -3.14377
rclavicle 1.83379e-014 2.5842e-015
rhumerus -30.3589 -6.59256 -80.7792
rradius 34.6275
rwrist -7.88054
rhand -17.2073 -2.69367
rfingers 7.12502
rthumb 9.03531 -32.4802
lclavicle 1.83379e-014 2.5842e-015
lhumerus -37.3568 -3.72476 85.2258
lradius 38.4754
lwrist 15.2556
lhand -14.4237 -3.81238
lfingers 7.12502
lthumb 11.7205 25.8397
rfemur 12.8461 -2.07592 24.1485
rtibia 21.1402
rfoot 0.977731 -6.24411
rtoes -21.2674
lfemur -21.5195 -1.99004 -17.3428
ltibia 30.1889
lfoot -8.29497 10.2864
ltoes -4.30307
1377
root 2.02348 18.0986 24.029 5.2175 1.48783 -5.67259
lowerback 1.05686 2.28786 2.66912
upperback 0.491296 3.08165 2.51417
thorax -0.0862053 1.54249 1.04832
lowerneck -23.7541 1.4543 6.08075
upperneck 23.4751 1.60882 -6.36614
head 11.723 0.430995 -3.12832
rclavicle 7.47927e-015 2.26615e-014
rhumerus -30.5321 -6.77357 -80.7613
rradius 34.7165
rwrist -7.88802
rhand -17.2058 -2.72859
rfingers 7.12502
rthumb 9.03673 -32.515
lclavicle 7.47927e-015 2.26615e-014
lhumerus -37.3965 -3.97406 85.2665
lradius 38.3232
lwrist 15.2105
lhand -14.3835 -3.85057
lfingers 7.12502
lthumb 11.7593 25.7993
rfemur 12.5666 -2.29178 23.7982
rtibia 21.9261
rfoot 1.40549 -5.88016
rtoes -20.9012
lfemur -21.24 -1.86562 -17.5387
ltibia 30.135
lfoot -8.43206 10.3597
ltoes -4.37513
1378
root 2.04277 18.0994 24.0898 5.22077 1.36031 -5.53124
lowerback 1.17548 2.57278 3.05411
upperback 0.437538 3.47122 2.21914
thorax -0.166063 1.73631 0.522263
lowerneck -23.978 1.08346 5.70341
upperneck 23.657 1.10814 -5.97461
head 11.7926 0.222065 -3.00688
rclavicle -2.48232e-014 4.45278e-014
rhumerus -30.7782 -7.78162 -80.5257
rradius 34.8566
rwrist -7.87352
rhand -17.2195 -2.73947
rfingers 7.12502
rthumb 9.02356 -32.5265
lclavicle -2.48232e-014 4.45278e-014
lhumerus -37.1746 -5.06011 85.516
lradius 38.1031
lwrist 15.1987
lhand -14.358 -3.88939
lfingers 7.12502
lthumb 11.7839 25.7591
rfemur 12.2575 -2.54812 23.3812
rtibia 22.7598
rfoot 1.83648 -5.48103
rtoes -20.5242
lfemur -20.9476 -1.77089 -17.7862
ltibia 30.0454
lfoot -8.55143 10.4477
ltoes -4.43353
1379
root 2.06214 18.1003 24.15 5.22206 1.24634 -5.37248
lowerback 1.29056 2.79349 3.34466
upperback 0.37906 3.77493 1.96108
thorax -0.250284 1.88655 0.087135
lowerneck -24.1496 0.768739 5.36178
upperneck 23.8491 0.687656 -5.62055
head 11.8667 0.0489043 -2.89239
rclavicle 3.98812e-014 1.11319e-014
rhumerus -31.0211 -8.60074 -80.3313
rradius 35.0034
rwrist -7.87978
rhand -17.2397 -2.72472
rfingers 7.12502
rthumb 9.00402 -32.5126
lclavicle 3.98812e-014 1.11319e-014
lhumerus -37.002 -5.96841 85.7286
lradius 37.9023
lwrist 15.1618
lhand -14.3252 -3.8946
lfingers 7.12502
lthumb 11.8155 25.7521
rfemur 11.9199 -2.82372 22.9338
rtibia 23.6419
rfoot 2.2555 -5.05959
rtoes -20.221
lfemur -20.6414 -1.70981 -18.0538
ltibia 29.9244
lfoot -8.651 10.5564
ltoes -4.48032
